# xmcd
#
# Track frame offsets:
#	150
#	8776
#	19974
#	30086
#	42631
#	62608
#	72807
#	78369
#	89151
#	99040
#	108911
#	119521
#	125114
#	134164
#	143820
#	157587
#	167691
#	181857
#	201889
#	217924
#	231186
#	241328
#	251050
#	261640
#	270021
#
# Disc length: 3690 seconds
#
# Revision: 1
# Processed by: cddbd v1.5.1PL2 Copyright (c) Steve Scherf et al.
# Submitted via: audiograbber 1.83.01
#
DISCID=580e6819
DTITLE=Various Artist - India
DYEAR=2001
DGENRE=
TTITLE0=Rahul Sharma - By the River
TTITLE1=Rahul Sharma - (Mela) The Fair
TTITLE2=Ayaan Ali Bangash - Bageshri 
TTITLE3=Pandit's Shivkumar Sharma and Hariprasad Chaura - Jhinjoti
TTITLE4=Sultan Khan - Jaijaiwanti - Kaushi Kanada 
TTITLE5=Shewta Javeri - The Rebirth
TTITLE6=Shweta Javeri - Heart Of Darkness
TTITLE7=Mohammed Rafi - Suhani raat dhal chooki
TTITLE8=Rahuk Sharma - Here comes the rain
TTITLE9=Hariharan - Aabadiyon Meindusht Ka Munzar Bhi Aayega
TTITLE10=Hariharan and Preeti Uttam - Peenay Waalay Bekhundi Say Kaam Lay
TTITLE11=Hema Desai - Ganesh Paat Beysadiye
TTITLE12=Hema Desai - Sitane Tora Raam
TTITLE13=Hema Desai - Saanjh Pahelaani
TTITLE14=Hariharan - Morpichchani Rajaai
TTITLE15=Satish Vyas - Marwa
TTITLE16=Veena Sahasrabuddhe - Madhamad Sarang
TTITLE17=Birju Maharaj - Ulhan (Kathak)
TTITLE18=Pandit C R  Vyas - Miya Ki Malhar
TTITLE19=Pandit Kishan Maharaj - Tabla Solo (Benaras Tradition)
TTITLE20=Mohammed Rafi - Jis raat ke khwad aaye
TTITLE21=Hariharan - Aadabiyon mein dusht ka munzar bhi aayega
TTITLE22=Hariharan and Preeti - Peenay waalay bekhudi say kaam lay
TTITLE23=Ajoy Chakraborty - Raga Bihag
TTITLE24=Pandit Shivkumar Sharma - Nantaah - prajanam na bahis - prajanam
EXTD=
EXTT0=
EXTT1=
EXTT2=
EXTT3=
EXTT4=
EXTT5=
EXTT6=
EXTT7=
EXTT8=
EXTT9=
EXTT10=
EXTT11=
EXTT12=
EXTT13=
EXTT14=
EXTT15=
EXTT16=
EXTT17=
EXTT18=
EXTT19=
EXTT20=
EXTT21=
EXTT22=
EXTT23=
EXTT24=
PLAYORDER=
